<?xml version="1.0" encoding="utf-8"?>
<svg width="256px" height="512px" viewBox="0 0 256 512" version="1.1" xmlns:xlink="http://www.w3.org/1999/xlink" xmlns="http://www.w3.org/2000/svg">
  <defs>
    <path d="M0 0L256 0L256 512L0 512L0 0Z" id="path_1" />
    <clipPath id="mask_1">
      <use xlink:href="#path_1" />
    </clipPath>
  </defs>
  <g id="angle-left-solid">
    <path d="M0 0L256 0L256 512L0 512L0 0Z" id="Background" fill="none" fill-rule="evenodd" stroke="none" />
    <g clip-path="url(#mask_1)">
      <path d="M192 448C183.812 448 175.62 444.875 169.38 438.625L9.38 278.625C-3.12 266.125 -3.12 245.875 9.38 233.375L169.38 73.375C181.88 60.875 202.13 60.875 214.63 73.375C227.13 85.875 227.13 106.125 214.63 118.625L77.25 256L214.65 393.4C227.15 405.9 227.15 426.15 214.65 438.65C208.4 444.9 200.2 448 192 448L192 448Z" id="Shape" fill="#F8F8F8" stroke="none" />
    </g>
  </g>
</svg>